<svg preserveAspectRatio="none" width="100%" height="100%" overflow="visible" style="display: block;" viewBox="0 0 137.522 243.497" fill="none" xmlns="http://www.w3.org/2000/svg">
<path id="Vector" d="M50.682 0.125223C51.4356 0.062856 52.1892 0.023862 52.9428 0.00740395C83.1303 -0.643987 74.9445 41.8489 75.1004 63.0953C87.8597 63.1299 126.042 59.9934 131.586 68.6572C158.56 110.774 85.4517 101.536 74.9965 101.442C74.9705 119.942 71.6529 175.528 80.6182 189.172C89.9126 203.308 103.555 200.669 117.562 203.624C122.794 204.727 128.139 207.387 131.101 212.005C134.523 217.343 134.063 224.084 132.851 230.016C131.759 232.767 130.113 235.268 128.026 237.367C122.811 242.585 116.419 243.494 109.42 243.497C80.1418 243.505 53.913 230.499 41.9246 202.731C33.6003 183.46 34.7264 165.566 34.735 145.069L34.787 101.433C21.4127 101.61 2.94522e-06 103.507 2.94522e-06 82.8804C-0.00865916 61.5508 19.0913 62.9004 34.6484 63.1013C35.1508 47.908 33.3751 30.304 35.6099 15.3177C36.7966 7.36759 43.4838 2.83646 50.682 0.125223Z" fill="black"/>
</svg>
